<svg preserveAspectRatio="none" width="100%" height="100%" overflow="visible" style="display: block;" viewBox="0 0 780.865 162" fill="none" xmlns="http://www.w3.org/2000/svg">
<g id="Union">
<path d="M80 81C35.8172 81 3.14439e-06 44.7351 3.14439e-06 0H21.6216C21.6216 32.6445 47.7585 59.1081 80 59.1081V81Z" fill="var(--fill-0, #23004E)"/>
<path d="M80 81C124.183 81 160 117.265 160 162H138.378C138.378 129.355 112.241 102.892 80 102.892L80 81Z" fill="var(--fill-0, #23004E)"/>
<path d="M1.89022e-06 81C44.1828 81 80 117.265 80 162H58.3784C58.3784 129.355 32.2415 102.892 0 102.892L1.89022e-06 81Z" fill="var(--fill-0, #23004E)"/>
<path d="M160 81C115.817 81 80 44.7351 80 0H101.622C101.622 32.6445 127.758 59.1081 160 59.1081V81Z" fill="var(--fill-0, #23004E)"/>
<path d="M702.647 115.914L714.456 105.074C721.959 114.929 732.239 119.152 745.16 119.152C756.691 119.152 764.471 116.477 764.471 110.142C764.471 103.666 758.219 103.525 740.853 101.413C721.82 99.0201 707.371 95.7821 707.371 80.1552C707.371 66.2177 720.708 56.2221 741.826 56.2221C759.331 56.2221 772.946 62.9797 779.198 71.4266L768.5 81.8446C763.082 74.5239 753.218 70.1596 741.131 70.1596C729.044 70.1596 723.348 73.5384 723.348 78.6066C723.348 83.8155 728.766 84.5195 744.743 86.4904C764.332 88.8837 780.865 91.277 780.865 108.453C780.865 125.065 763.777 133.09 745.299 133.09C726.682 133.09 710.705 126.895 702.647 115.914Z" fill="var(--fill-0, #23004E)"/>
<path d="M695.1 30.4588V131.541H678.428V30.4588H695.1Z" fill="var(--fill-0, #23004E)"/>
<path d="M662.266 30.4588V131.541H645.595V30.4588H662.266Z" fill="var(--fill-0, #23004E)"/>
<path d="M612.484 47.7751V30.4588H629.711V47.7751H612.484ZM629.433 57.6299V131.541H612.762V57.6299H629.433Z" fill="var(--fill-0, #23004E)"/>
<path d="M538.803 30.4588V94.6558L582.01 57.6299H605.351L566.589 90.01L606.879 131.541H585.484L554.641 100.006L538.803 113.239V131.541H522.132V30.4588H538.803Z" fill="var(--fill-0, #23004E)"/>
<path d="M433.742 115.914L445.551 105.074C453.053 114.929 463.334 119.152 476.254 119.152C487.786 119.152 495.566 116.477 495.566 110.142C495.566 103.666 489.314 103.525 471.948 101.413C452.914 99.0201 438.465 95.7821 438.465 80.1552C438.465 66.2177 451.803 56.2221 472.92 56.2221C490.425 56.2221 504.04 62.9797 510.292 71.4266L499.595 81.8446C494.176 74.5239 484.312 70.1596 472.225 70.1596C460.139 70.1596 454.442 73.5384 454.442 78.6066C454.442 83.8155 459.861 84.5195 475.838 86.4904C495.427 88.8837 511.959 91.277 511.959 108.453C511.959 125.065 494.871 133.09 476.393 133.09C457.777 133.09 441.8 126.895 433.742 115.914Z" fill="var(--fill-0, #23004E)"/>
<path d="M373.979 28.9103C406.35 28.9103 430.802 51.0133 430.802 81C430.802 110.987 406.35 133.09 373.979 133.09C341.47 133.09 317.157 110.987 317.157 81C317.157 51.0133 341.47 28.9103 373.979 28.9103ZM373.979 44.8188C351.056 44.8188 335.218 59.4602 335.218 81C335.218 102.54 351.056 117.181 373.979 117.181C396.764 117.181 412.602 102.54 412.602 81C412.602 59.4602 396.764 44.8188 373.979 44.8188Z" fill="var(--fill-0, #23004E)"/>
<path d="M228.284 88.4614L215.224 83.9563L221.615 30.4588H303.584V46.2265H234.952L231.757 71.0043C238.148 67.2031 248.984 62.9797 264.128 62.9797C291.219 62.9797 312.059 76.354 312.059 97.6123C312.059 119.011 290.247 133.09 261.349 133.09C233.285 133.09 213.001 120.841 208 102.258L223.699 95.3597C229.117 110.283 242.177 117.885 261.488 117.885C279.688 117.885 293.998 110.987 293.998 97.8938C293.998 85.5049 280.383 77.9027 260.516 77.9027C246.345 77.9027 235.925 82.4077 228.284 88.4614Z" fill="var(--fill-0, #23004E)"/>
</g>
</svg>
